<svg width="1290" height="426" viewBox="0 0 1290 426" fill="none" xmlns="http://www.w3.org/2000/svg">
<g filter="url(#filter0_ddiii_391_13327)">
<path d="M1290 103.541C1290 93.3559 1287.35 83.3459 1282.31 74.4951C1272.85 57.8853 1255.9 46.9214 1236.87 45.1092L847.234 8H436.719L56.2966 45.1632C37.8947 46.9609 21.2394 56.8319 10.8274 72.111C3.77295 82.4632 0 94.7001 0 107.227V318.773C0 331.3 3.77295 343.537 10.8274 353.889C21.2394 369.168 37.8947 379.039 56.2966 380.837L436.719 418H847.234L1236.87 380.891C1255.9 379.079 1272.85 368.115 1282.31 351.505C1287.35 342.654 1290 332.644 1290 322.459V103.541Z" fill="url(#paint0_linear_391_13327)"/>
<path d="M1288 103.541C1288 93.7029 1285.44 84.034 1280.57 75.4848C1271.44 59.441 1255.06 48.8507 1236.68 47.1002L847.139 10H436.816L56.4911 47.1537C38.6793 48.8938 22.5582 58.4482 12.4801 73.2373C5.65198 83.2575 2 95.1019 2 107.227V318.773C2 330.898 5.65198 342.743 12.4801 352.763C22.5582 367.552 38.6793 377.106 56.4911 378.846L436.816 416H847.139L1236.68 378.9C1255.06 377.149 1271.44 366.559 1280.57 350.515C1285.44 341.966 1288 332.297 1288 322.459V103.541Z" stroke="url(#paint1_linear_391_13327)" stroke-opacity="0.2" stroke-width="4"/>
</g>
<defs>
<filter id="filter0_ddiii_391_13327" x="0" y="-10" width="1290" height="440" filterUnits="userSpaceOnUse" color-interpolation-filters="sRGB">
<feFlood flood-opacity="0" result="BackgroundImageFix"/>
<feColorMatrix in="SourceAlpha" type="matrix" values="0 0 0 0 0 0 0 0 0 0 0 0 0 0 0 0 0 0 127 0" result="hardAlpha"/>
<feOffset dy="8"/>
<feComposite in2="hardAlpha" operator="out"/>
<feColorMatrix type="matrix" values="0 0 0 0 1 0 0 0 0 1 0 0 0 0 1 0 0 0 0.05 0"/>
<feBlend mode="normal" in2="BackgroundImageFix" result="effect1_dropShadow_391_13327"/>
<feColorMatrix in="SourceAlpha" type="matrix" values="0 0 0 0 0 0 0 0 0 0 0 0 0 0 0 0 0 0 127 0" result="hardAlpha"/>
<feOffset dy="-8"/>
<feComposite in2="hardAlpha" operator="out"/>
<feColorMatrix type="matrix" values="0 0 0 0 0 0 0 0 0 0 0 0 0 0 0 0 0 0 0.15 0"/>
<feBlend mode="normal" in2="effect1_dropShadow_391_13327" result="effect2_dropShadow_391_13327"/>
<feBlend mode="normal" in="SourceGraphic" in2="effect2_dropShadow_391_13327" result="shape"/>
<feColorMatrix in="SourceAlpha" type="matrix" values="0 0 0 0 0 0 0 0 0 0 0 0 0 0 0 0 0 0 127 0" result="hardAlpha"/>
<feOffset dy="4"/>
<feGaussianBlur stdDeviation="2.5"/>
<feComposite in2="hardAlpha" operator="arithmetic" k2="-1" k3="1"/>
<feColorMatrix type="matrix" values="0 0 0 0 0 0 0 0 0 0 0 0 0 0 0 0 0 0 0.5 0"/>
<feBlend mode="normal" in2="shape" result="effect3_innerShadow_391_13327"/>
<feColorMatrix in="SourceAlpha" type="matrix" values="0 0 0 0 0 0 0 0 0 0 0 0 0 0 0 0 0 0 127 0" result="hardAlpha"/>
<feOffset dy="12"/>
<feGaussianBlur stdDeviation="6"/>
<feComposite in2="hardAlpha" operator="arithmetic" k2="-1" k3="1"/>
<feColorMatrix type="matrix" values="0 0 0 0 0 0 0 0 0 0 0 0 0 0 0 0 0 0 0.25 0"/>
<feBlend mode="normal" in2="effect3_innerShadow_391_13327" result="effect4_innerShadow_391_13327"/>
<feColorMatrix in="SourceAlpha" type="matrix" values="0 0 0 0 0 0 0 0 0 0 0 0 0 0 0 0 0 0 127 0" result="hardAlpha"/>
<feOffset dy="-18"/>
<feGaussianBlur stdDeviation="12"/>
<feComposite in2="hardAlpha" operator="arithmetic" k2="-1" k3="1"/>
<feColorMatrix type="matrix" values="0 0 0 0 0 0 0 0 0 0 0 0 0 0 0 0 0 0 0.6 0"/>
<feBlend mode="normal" in2="effect4_innerShadow_391_13327" result="effect5_innerShadow_391_13327"/>
</filter>
<linearGradient id="paint0_linear_391_13327" x1="1290" y1="213" x2="0" y2="213" gradientUnits="userSpaceOnUse">
<stop offset="0.0347444"/>
<stop offset="0.0629047" stop-color="#5B5D63"/>
<stop offset="0.084665" stop-color="#696B6E"/>
<stop offset="0.277139" stop-color="#2F2F2E"/>
<stop offset="0.316126" stop-color="#000002"/>
<stop offset="0.674751" stop-color="#000003"/>
<stop offset="0.701632" stop-color="#2D2D31"/>
<stop offset="0.801473" stop-color="#92939B"/>
<stop offset="0.885988" stop-color="#C3C4C6"/>
<stop offset="0.913361" stop-color="#A3A5AD"/>
<stop offset="0.933314" stop-color="#595A5E"/>
<stop offset="0.978115" stop-color="#111113"/>
</linearGradient>
<linearGradient id="paint1_linear_391_13327" x1="655.419" y1="8" x2="655.419" y2="418" gradientUnits="userSpaceOnUse">
<stop/>
<stop offset="1" stop-color="white"/>
</linearGradient>
</defs>
</svg>
